<svg id="ad071d7c-ee3a-4635-b99b-16c91d43306c" data-name="Layer 1" xmlns="http://www.w3.org/2000/svg" viewBox="0 0 481.2 134.79"><defs><style>.e35cee5f-0125-4b4c-98f3-2da1ea1311d6{fill:#215719;}.fd1c5c00-323b-4828-a30b-33068ac6d5c7{fill:#8e8885;}.acef6fe1-79c8-4468-ab43-7103f60b496a{fill:#ffde00;}.a3198e96-83c7-4a47-9877-c4a0e9c953ec{fill:#fdc400;}.a4138900-a6c9-4335-89fb-f4c41d0f6aed{fill:#ffec08;}.f56e433c-6247-425c-9a0c-65342d8f3883{fill:#ffe400;}.e3bdfc5f-cd01-4a57-90bd-1bf9635a1ce4{fill:#bdac00;}.bea026ef-0a16-454c-88f7-6194f2dc94a5{fill:#e16e00;}.a447033a-557e-4df1-a001-0e85cebbbfb3{fill-rule:evenodd;}.bcc172e7-025a-4457-8313-6cf1fec4b5f8{fill:red;}.b92ebff2-b12f-42cd-aa8f-b7eee82a8484{fill:#f1e8df;}.e57cb7d8-8896-471c-bec0-23e1b4c78ab0{fill:#4497f8;}.bf978872-2752-40a1-a2b0-72631dcf2514{fill:#3a92e8;}.bd911c78-5d57-406c-a4d8-aa6dd9bfe42a{fill:#338ae2;}.aa8a01d6-9134-4c0d-8d0c-f9a7fc4ee63a{fill:#3c91e5;}.f5ec1c55-39b1-4ceb-af44-d4f8614d2b61{fill:#aad2f9;}.fd86c3f2-b61a-40b2-bd46-d501123e7718{fill:#e87026;}.a2070188-1fd0-4abf-b66d-8cdab4f51695{fill:#fdb2a8;}.ab9abbc2-9d45-42f1-abfd-f447a66d59f5{fill:#9accfc;}.b5adde8f-584c-4894-8d53-66154ff67579{fill:#1f0f0e;}.b259e41b-d1c5-455a-aa1f-4b85364a939e{fill:#a0cdf9;}</style></defs><path class="e35cee5f-0125-4b4c-98f3-2da1ea1311d6" d="M333.39,24.26c-4.56-.5-7.9-4.2-7.9-4.2s4.05-2.9,8.61-2.4S342,21.85,342,21.85,338,24.75,333.39,24.26Z" transform="translate(-3.4 -1.55)"/><path class="e35cee5f-0125-4b4c-98f3-2da1ea1311d6" d="M381,13.8c1.1,4.66-1.58,9.28-1.58,9.28s-4.48-2.93-5.58-7.59,1.58-9.28,1.58-9.28S379.86,9.14,381,13.8Z" transform="translate(-3.4 -1.55)"/><path class="fd1c5c00-323b-4828-a30b-33068ac6d5c7" d="M442.3,87.85c3.72,0,7.93.81,11.05,3.18s5.74,6.67,8.22,9.84c5.44,6.94,9.39,22.1,14.16,29.52,2.84,4.4,13.14,10.15,6.89,1.35-12.09-17-12.69-37.16-13.28-40.51-.72-4,2.6-15.82,3.54-19.77a119.17,119.17,0,0,0,1.9-12.33c.24-1.89.48-3.78.86-5.65.19-.92,1.58-4.4,1.42-5.25-.83-4.56-3,1.84-3.34,3.13a124.54,124.54,0,0,0-1.86,12.47c-1.12,8.28-5.21,16.39-5.1,24.79-3.64-6.42-8.21-12.35-10.29-19.56-2.21-7.63-1.94-15.72-3.21-23.51-.36-2.2-1.59-11.59-4.1-12.36-3.79-1.17-.18,4.74.34,6.35,2.19,6.78,2.21,14.06,3,21.07-4-5.69-10.68-9.18-14.09-15.33-.62-1.11-1-3.85-2.47-3.9-2.35-.07-.18,3.88.28,4.74,2.49,4.66,6.86,7.82,10.52,11.46,1.88,1.87,4.62,4.37,5.82,6.27,1.06,1.66,1.37,5.1,2.14,7.41a45.42,45.42,0,0,0,3.64,8c3.71,6.59,7,12.09,8.77,19.62A177,177,0,0,1,450.7,80.16a137.78,137.78,0,0,0-25.41-25.82,122,122,0,0,1-24.44-25.72c-.55-.8-3.07-6.22-4.52-3.88-.9,1.44,2.34,4.84,3.22,6.08a115.58,115.58,0,0,0,11.87,13.89c-6.74-4.44-13.55-8.78-20.09-13.53-2.7-2-5.42-4.85-8.38-6.33s-7.24-2.34-10.44-3.38-6.45-2.33-9.71-2.71c-2-.22-6.34.45-3,2.33.67.39,5.05.54,6,.79,1.86.48,3.7,1.09,5.53,1.67.9.29,8.45,2.51,8.38,3.09-5.43-.93-10.84.24-16.25.69a69.89,69.89,0,0,1-16.52-1c-1.4-.22-6.71-2.15-7.49-.47-.95,2,2.77,2.06,3.91,2.26a83.12,83.12,0,0,0,18.54,1.63c4.66-.25,9.3-1.3,14-1.16,5.55.16,8.52,3.31,12.92,6.5,9.75,7.06,20.09,13.21,29.9,20.19-6.27-1.46-12.65-.82-18.86-1.7-7.41-1-14.49-3.68-21.84-4.85-2-.31-4.31,0-2,1.93.76.64,2.76.67,3.71.9,4.19,1,8.38,2.09,12.59,3a156.91,156.91,0,0,1-16.21.89c-1.77,0-12.71-2.12-10.19,1.24,1.79,2.38,12.74,1.14,15.44,1,5.83-.24,11.63-.93,17.45-1.28,11.05-.66,22-.3,30.78,7.19,7.91,6.77,14,14.87,20.34,23.06" transform="translate(-3.4 -1.55)"/><path class="acef6fe1-79c8-4468-ab43-7103f60b496a" d="M352.57,9.08a2.49,2.49,0,0,0-1.31-1.67c-.8-.55-1.12-1.16-2.79-.34a26.36,26.36,0,0,0-5,4.23c.26-1.23.92-4.37,1.18-5.24.32-1.09-.29-1.68-1.22-2.29s-.57-1.64-1.93-2.11-2.28.62-3.22,1.41,0,.92-.33,2.24,0,1.62.66,3.06,2.49,1.77,3.46,2.83l1,.45c-.46.11-1,1-2.16,1.3-2,.56-3.61,1.31-4.06,2.28a3.23,3.23,0,0,0-.18,2.51,3.77,3.77,0,0,0,1.52,1.85,12.58,12.58,0,0,0,2.25.32c.51.12,1.05.91,1.58.87a1.57,1.57,0,0,0,1.53-1c.42-.74.89-.79,1.34-1.83s-.81-4.9-.95-5.35L347.32,14s2.32,1.42,3.31,1.39a2.75,2.75,0,0,0,2.12-1.77,8,8,0,0,1,.52-1.67,1.43,1.43,0,0,0-.12-1.6C352.77,10.05,352.91,10.17,352.57,9.08Z" transform="translate(-3.4 -1.55)"/><path class="a3198e96-83c7-4a47-9877-c4a0e9c953ec" d="M338.38,6.5a3.62,3.62,0,0,1,1.3.81c.24.26,1.44,2.11,1.6,2.05s-.16-.45-.28-.91-.72-1.37-.65-1.49.23.25.51.65.43,1.13.66,1.22.33.39.37.14-.35-1.32-.36-1.67.14-.54.22-.24.32,1.61.48,1.52.18-.88,0-1.24a4,4,0,0,1,0-1.57c.07-.38.33-1.33.33-1.33l.9,4.54-.63,2.69s-1.08.13-1.23,0-3.09-4.58-3.09-4.58-.6-.09-.5-.24S338.24,6.46,338.38,6.5Z" transform="translate(-3.4 -1.55)"/><path class="a3198e96-83c7-4a47-9877-c4a0e9c953ec" d="M350,7.54a12.63,12.63,0,0,1-1.82,2.33c-.45.5-2.31,1.29-2.11,1.42s2-.62,2.35-.53.49.1-.06.31-2.51.48-2.37.57a12,12,0,0,0,2.32.15c.45,0,1.37-.08,1.33.17s-.4.19-.79.17a11.6,11.6,0,0,1-1.69,0c-.49-.08-1-.28-1.07-.13s.07.21.5.34a8.33,8.33,0,0,1,1.17.4c.3.15.41.44.28.38a8.83,8.83,0,0,1-1.28-.48c-.37-.22-1-.58-1.22-.42s.93.6,1.3.77,1.06.44,1.38.62a7,7,0,0,1,1,1.34l-4.52-2a5.3,5.3,0,0,1-.7-1.09l5.67-4.23Z" transform="translate(-3.4 -1.55)"/><path class="a3198e96-83c7-4a47-9877-c4a0e9c953ec" d="M337.8,14.24a8.62,8.62,0,0,0,1.65-.32c.51-.15,1.27-.55,1.54-.59s.49,0,.41.2-1.34.84-1.54,1.14-.39.64-.22.59.37-.59.64-.7a6.62,6.62,0,0,0,1.26-.7c.18-.17.23-.46.38-.31s-.87,1-.91,1.28.15.33.34.13a4.6,4.6,0,0,0,.65-.75c.13-.25.16-.39.33-.45s.16.69,0,1.21a14.05,14.05,0,0,0,.07,2,4.7,4.7,0,0,0,.23,1.71c.17.4.66,1,.59.83s-.29-7-.29-7,.57-.91,0-.7-4.32,2-4.51,2.06Z" transform="translate(-3.4 -1.55)"/><path class="a4138900-a6c9-4335-89fb-f4c41d0f6aed" d="M346.86,3.13a2.24,2.24,0,0,0-2.37-.1c-.91.31-1.58.2-1.94,2.05a26.73,26.73,0,0,0,.33,6.59c-.81-.95-2.88-3.4-3.41-4.14-.66-.92-1.5-.78-2.53-.4s-1.23-.6-2.41.21-1.27,2.27-1.57,3.24c-.36,1.19.62,1.48,1.43,2.58s1.76.29,3.27.66,2.88-.94,4.3-1.08l.94-.51a4.56,4.56,0,0,0-.27,2.53c.27,1.77-.06,3.48.43,4.43s.92,2,1.45,2.14a5,5,0,0,0,1.93-.57,13,13,0,0,0,2.22-.88c.44-.37.67-1.2,1-1.45a1.62,1.62,0,0,0,.65-2c-.33-.78-.72-1-1.38-1.88s-4.35-2.33-4.79-2.49l3.17-1.87a34.65,34.65,0,0,0,2.94-3c.57-.82-.26-1.86-.26-1.86a6.73,6.73,0,0,1-1-1.33A1,1,0,0,0,348,3.31C347.48,3.41,347.82,3.74,346.86,3.13Z" transform="translate(-3.4 -1.55)"/><path class="f56e433c-6247-425c-9a0c-65342d8f3883" d="M338.86,10.13c.29-.3,2.54,1.12,2.81,1.1s-.89-.52-1.13-.82-.86-.84-.7-.93.93.63,1,.67.07-.2-.18-.6-.31-.89-.25-.81a33.38,33.38,0,0,1,2.2,2.64.89.89,0,0,1-.13.78c-.14.22-.56.35-1.13.62s-1.27.58-1.39.63a4.09,4.09,0,0,1-1.1.39c-.22,0-.44-.08.28-.39s1.35-.33,1.41-.52-.14-.23-.6-.3-1-.06-1-.29.68-.19,1.07-.14.79-.2.42-.43-2.71-.35-2.64-.64,3.1.48,3,.2S338.65,10.34,338.86,10.13Z" transform="translate(-3.4 -1.55)"/><path class="f56e433c-6247-425c-9a0c-65342d8f3883" d="M344.37,5.34a9,9,0,0,0-.69,2.53c-.09.4-.07,1-.47.86s-.39-.59-.36-1.19a18,18,0,0,0-.32-2.35s-.12,3-.15,3.11.5,3.37.5,3.37l1.15.6s.57-.32,1.33-.82a19.28,19.28,0,0,0,2.38-1.59c.55-.53-.09.14-.79.36s-1.44.68-1.59.27.83-1.16.85-1.39-1.22,1.31-1.36.92,1.78-2.56,1.75-2.93-1.67,2.22-2,2.16-.47-.12-.51-.78S344.69,4.87,344.37,5.34Z" transform="translate(-3.4 -1.55)"/><path class="f56e433c-6247-425c-9a0c-65342d8f3883" d="M342.74,12.68a6.54,6.54,0,0,0-.17,1.46c0,.52.25,1.84.22,2.2s-.16.87,0,.73,0-1,.17-1.77-.18-1.4.23-1.57.5,1.91.76,1.8-.52-2-.35-2.17,1.59,3.9,1.73,3.74-.41-1.17-.52-1.67-1-2-.86-2.18.66.38.76.68.42,1.37.65,1.35-.22-.6-.35-1.14-.55-1.23-.4-1.26.85,1.59,1.07,1.33,0-.55-.3-1-.83-.62-.51-.62a10.21,10.21,0,0,1,2,1.06c.31.18,1.39.4.95,0a14,14,0,0,0-2.38-1.13l-1.2-.48Z" transform="translate(-3.4 -1.55)"/><path class="e3bdfc5f-cd01-4a57-90bd-1bf9635a1ce4" d="M342.72,11.67c-.18.12-.35,0-.21.34a.74.74,0,0,0,.45.5c.25.14.22.15.49.06s.66,0,.58-.3a1.45,1.45,0,0,1,0-.59.64.64,0,0,0-.64-.28A.8.8,0,0,0,342.72,11.67Z" transform="translate(-3.4 -1.55)"/><path class="bea026ef-0a16-454c-88f7-6194f2dc94a5" d="M343.74,9.65c-.15.71-.2,3,0,2.83C344.29,11.9,343.94,8.75,343.74,9.65Z" transform="translate(-3.4 -1.55)"/><path class="bea026ef-0a16-454c-88f7-6194f2dc94a5" d="M342.64,9.75c0,.73.46,3,.6,2.76C343.66,11.82,342.63,8.82,342.64,9.75Z" transform="translate(-3.4 -1.55)"/><path class="bea026ef-0a16-454c-88f7-6194f2dc94a5" d="M343.23,8.53c-.08.61,0,2.54.2,2.36C343.85,10.37,343.33,7.76,343.23,8.53Z" transform="translate(-3.4 -1.55)"/><path class="bea026ef-0a16-454c-88f7-6194f2dc94a5" d="M344.46,9.76c-.08.51,0,2.15.15,2C345,11.31,344.55,9.11,344.46,9.76Z" transform="translate(-3.4 -1.55)"/><path class="bea026ef-0a16-454c-88f7-6194f2dc94a5" d="M341.66,9.47c.12.59.83,2.37.91,2.16C342.78,11,341.51,8.72,341.66,9.47Z" transform="translate(-3.4 -1.55)"/><path class="bea026ef-0a16-454c-88f7-6194f2dc94a5" d="M341.21,10.42c.44.38,1.66,1.84,1.46,1.81C342.09,12.14,340.64,9.94,341.21,10.42Z" transform="translate(-3.4 -1.55)"/><path class="bea026ef-0a16-454c-88f7-6194f2dc94a5" d="M341.21,11.27c.47.35,1.77,1.73,1.57,1.71C342.2,12.93,340.62,10.83,341.21,11.27Z" transform="translate(-3.4 -1.55)"/><path class="bea026ef-0a16-454c-88f7-6194f2dc94a5" d="M342.64,12.35c.3.11,1.17.67,1.05.69C343.35,13.11,342.26,12.2,342.64,12.35Z" transform="translate(-3.4 -1.55)"/><path class="bea026ef-0a16-454c-88f7-6194f2dc94a5" d="M341.74,12.7c.3.12,1.17.67,1.05.69C342.45,13.46,341.35,12.55,341.74,12.7Z" transform="translate(-3.4 -1.55)"/><path class="bea026ef-0a16-454c-88f7-6194f2dc94a5" d="M344.26,11.47c-.06.34,0,1.42.11,1.3C344.64,12.44,344.33,11,344.26,11.47Z" transform="translate(-3.4 -1.55)"/><path class="acef6fe1-79c8-4468-ab43-7103f60b496a" d="M370.52,22a2.48,2.48,0,0,0,0-2.13c-.26-.94-.13-1.62-1.94-2.08a26.18,26.18,0,0,0-6.5,0c1-.77,3.47-2.74,4.22-3.24.94-.62.84-1.48.51-2.54s.6-1.63-.15-2.87-2.15-1-3.37-1-.55.73-1.67,1.5-1,1.26-1.43,2.77.8,3,.87,4.41l.47,1c-.42-.21-1.38.1-2.48-.4-1.89-.88-3.61-1.36-4.56-.91a3.19,3.19,0,0,0-1.74,1.8,4,4,0,0,0,0,2.41c.21.5,1.21,1.26,1.54,1.7s.23,1.39.66,1.7a1.58,1.58,0,0,0,1.81.24c.78-.3,1.18,0,2.18-.53s2.48-4.27,2.66-4.71l1.7,3.3s.88,2.6,1.66,3.22a2.73,2.73,0,0,0,2.75,0,8.26,8.26,0,0,1,1.47-.94,1.41,1.41,0,0,0,.91-1.3C370.05,22.89,370.09,23.07,370.52,22Z" transform="translate(-3.4 -1.55)"/><path class="a3198e96-83c7-4a47-9877-c4a0e9c953ec" d="M361.22,10.81a3.76,3.76,0,0,1,.49,1.46,15.77,15.77,0,0,0-.06,2.61c.17.06.16-.45.36-.88s.31-1.52.43-1.56,0,.34,0,.83-.39,1.14-.27,1.36,0,.51.2.35.57-1.24.78-1.52.45-.32.32,0-.77,1.44-.59,1.47.69-.56.82-.91a4,4,0,0,1,1-1.21c.3-.24,1.1-.8,1.1-.8L363.61,16l-2.19,1.65s-.92-.61-.94-.82.51-5.51.51-5.51-.41-.46-.23-.51S361.14,10.68,361.22,10.81Z" transform="translate(-3.4 -1.55)"/><path class="a3198e96-83c7-4a47-9877-c4a0e9c953ec" d="M369.53,19.18a11.86,11.86,0,0,1-2.87.59c-.66.1-2.6-.51-2.52-.28s1.92.83,2.14,1.12.31.4-.25.2-2.23-1.26-2.18-1.1a12.75,12.75,0,0,0,1.69,1.62c.38.25,1.11.83.92,1s-.43-.11-.72-.37a16.24,16.24,0,0,1-1.33-1.08c-.32-.38-.58-.87-.73-.79s-.08.21.17.58a8.33,8.33,0,0,1,.64,1.07c.14.31.05.6,0,.48a8.83,8.83,0,0,1-.68-1.21c-.15-.41-.42-1.1-.68-1.11s.33,1.06.52,1.43.54,1,.66,1.37a6.57,6.57,0,0,1-.06,1.69s-2.1-4.34-2.19-4.5a5.62,5.62,0,0,1,.15-1.28l7,.45Z" transform="translate(-3.4 -1.55)"/><path class="a3198e96-83c7-4a47-9877-c4a0e9c953ec" d="M355.88,16.34a8,8,0,0,0,1.48.83c.48.22,1.32.41,1.55.55s.36.35.19.42-1.56-.22-1.9-.12-.71.23-.55.3.66-.21.93-.12a6.89,6.89,0,0,0,1.42.29c.25,0,.47-.21.49,0s-1.28.16-1.51.38-.09.35.18.32a3.93,3.93,0,0,0,1-.15c.26-.1.37-.19.54-.13s-.31.64-.74.95a13,13,0,0,0-1.24,1.61,4.78,4.78,0,0,0-.91,1.46,2.35,2.35,0,0,0-.07,1c0-.17,4.24-5.57,4.24-5.57s1-.33.41-.55-4.57-1.32-4.77-1.36S355.88,16.34,355.88,16.34Z" transform="translate(-3.4 -1.55)"/><path class="a4138900-a6c9-4335-89fb-f4c41d0f6aed" d="M369.88,13.75c-.35-1.09-.86-1.27-1.76-1.62s-1.34-.88-2.79.3a26,26,0,0,0-3.91,5.26c0-1.26-.07-4.48,0-5.39.08-1.13-.66-1.57-1.69-2s-.57-1.26-2-1.41-2.41.91-3.26,1.46c-1,.67-.46,1.53-.54,2.9s1.18,1.37,2.11,2.63,2.81,1.16,4,2l1.05.21a4.62,4.62,0,0,0-1.81,1.76c-.91,1.53-2.25,2.63-2.47,3.67s-.59,2.17-.24,2.57a4.88,4.88,0,0,0,1.84.83,14.13,14.13,0,0,0,2.27.77c.57,0,1.28-.48,1.72-.43a1.59,1.59,0,0,0,1.73-1.08,9.7,9.7,0,0,0,.13-2.34c.06-1.07-1.87-4.6-2.11-5l3.61.63a35.38,35.38,0,0,0,4.17-.39c1-.25,1-1.59,1-1.59a7.24,7.24,0,0,1,.1-1.65,1,1,0,0,0-.38-1.25C370.18,14.37,370.24,14.84,369.88,13.75Z" transform="translate(-3.4 -1.55)"/><path class="f56e433c-6247-425c-9a0c-65342d8f3883" d="M359.3,13.89c.41,0,1.24,2.51,1.46,2.67s-.36-1-.35-1.36-.13-1.2,0-1.17.32,1.09.37,1.18.17-.11.23-.58.32-.88.32-.78a32.61,32.61,0,0,1,0,3.45.89.89,0,0,1-.6.52,3.45,3.45,0,0,1-1.26-.26c-.61-.16-1.35-.39-1.47-.43a3.77,3.77,0,0,1-1.09-.42c-.14-.18-.29-.34.46-.12s1.25.63,1.42.52,0-.27-.28-.62-.72-.69-.56-.85.65.3.91.58.74.37.6,0-1.87-2-1.63-2.21,2.09,2.38,2.18,2.1S359,13.92,359.3,13.89Z" transform="translate(-3.4 -1.55)"/><path class="f56e433c-6247-425c-9a0c-65342d8f3883" d="M366.57,13.82a8.76,8.76,0,0,0-2.14,1.48c-.32.25-.66.7-.9.35s.07-.71.47-1.14a16.5,16.5,0,0,0,1.24-2s-2,2.2-2.07,2.28-1.75,2.9-1.75,2.9l.5,1.2s.64.13,1.55.24a17.73,17.73,0,0,0,2.83.33c.76,0-.16.05-.83-.23s-1.55-.42-1.4-.84,1.37-.34,1.53-.5-1.76.21-1.63-.18,3-.8,3.21-1.1-2.69.61-2.9.35-.29-.4.09-.93S367.11,13.66,366.57,13.82Z" transform="translate(-3.4 -1.55)"/><path class="f56e433c-6247-425c-9a0c-65342d8f3883" d="M360.67,18.36a6.42,6.42,0,0,0-1.05,1c-.33.39-1,1.57-1.23,1.82s-.67.57-.48.54.65-.78,1.25-1.23.74-1.19,1.17-1.06-.83,1.79-.56,1.88.9-1.91,1.11-1.89-1.24,4-1,4,.42-1.16.66-1.61.45-2.19.71-2.23.27.72.16,1-.56,1.32-.36,1.45.21-.6.45-1.1.36-1.3.49-1.22-.35,1.76,0,1.71.31-.45.38-.93-.24-1,0-.81a10.72,10.72,0,0,1,.84,2.09c.12.34.81,1.21.72.64A13.37,13.37,0,0,0,362.75,20c-.16-.31-.61-1.14-.61-1.14Z" transform="translate(-3.4 -1.55)"/><path class="e3bdfc5f-cd01-4a57-90bd-1bf9635a1ce4" d="M361.3,17.58c-.22,0-.28-.22-.39.12a.76.76,0,0,0,0,.68c.1.27.07.26.34.37s.51.42.63.14a1.54,1.54,0,0,1,.35-.47.67.67,0,0,0-.32-.64A.81.81,0,0,0,361.3,17.58Z" transform="translate(-3.4 -1.55)"/><path class="bea026ef-0a16-454c-88f7-6194f2dc94a5" d="M363.36,16.7c-.57.45-2.07,2.18-1.8,2.15C362.36,18.78,364.08,16.14,363.36,16.7Z" transform="translate(-3.4 -1.55)"/><path class="bea026ef-0a16-454c-88f7-6194f2dc94a5" d="M362.44,16.06c-.46.56-1.54,2.59-1.28,2.5C361.92,18.31,363,15.35,362.44,16.06Z" transform="translate(-3.4 -1.55)"/><path class="bea026ef-0a16-454c-88f7-6194f2dc94a5" d="M363.67,15.51c-.44.42-1.57,2-1.34,1.93C363,17.32,364.24,15,363.67,15.51Z" transform="translate(-3.4 -1.55)"/><path class="bea026ef-0a16-454c-88f7-6194f2dc94a5" d="M363.84,17.25c-.38.35-1.34,1.66-1.15,1.62C363.26,18.77,364.32,16.81,363.84,17.25Z" transform="translate(-3.4 -1.55)"/><path class="bea026ef-0a16-454c-88f7-6194f2dc94a5" d="M361.87,15.21c-.28.52-.86,2.35-.67,2.24C361.74,17.14,362.23,14.54,361.87,15.21Z" transform="translate(-3.4 -1.55)"/><path class="bea026ef-0a16-454c-88f7-6194f2dc94a5" d="M360.92,15.64a7.36,7.36,0,0,1,0,2.34C360.51,17.54,360.79,14.91,360.92,15.64Z" transform="translate(-3.4 -1.55)"/><path class="bea026ef-0a16-454c-88f7-6194f2dc94a5" d="M360.38,16.29a7.21,7.21,0,0,1,.13,2.33C360.09,18.2,360.21,15.57,360.38,16.29Z" transform="translate(-3.4 -1.55)"/><path class="bea026ef-0a16-454c-88f7-6194f2dc94a5" d="M360.8,18.05a3.49,3.49,0,0,1,.38,1.21C360.87,19.09,360.6,17.68,360.8,18.05Z" transform="translate(-3.4 -1.55)"/><path class="bea026ef-0a16-454c-88f7-6194f2dc94a5" d="M359.89,17.73a3.74,3.74,0,0,1,.37,1.22C360,18.77,359.68,17.37,359.89,17.73Z" transform="translate(-3.4 -1.55)"/><path class="bea026ef-0a16-454c-88f7-6194f2dc94a5" d="M362.61,18.43c-.27.23-.89,1.09-.75,1.06C362.29,19.42,362.94,18.14,362.61,18.43Z" transform="translate(-3.4 -1.55)"/><path class="acef6fe1-79c8-4468-ab43-7103f60b496a" d="M349.79,24.66A2.43,2.43,0,0,0,348,23.47c-.92-.27-1.42-.76-2.76.54a26.6,26.6,0,0,0-3.46,5.58c-.12-1.25-.43-4.46-.45-5.37,0-1.14-.79-1.51-1.85-1.81s-1-1.38-2.47-1.41-2,1.29-2.64,2.34.32.86.36,2.24.52,1.54,1.55,2.71,2.9.92,4.14,1.63l1.06.13c-.4.25-.65,1.24-1.66,1.91-1.73,1.15-3,2.37-3.18,3.42a3.32,3.32,0,0,0,.58,2.46,3.85,3.85,0,0,0,2,1.29,12.73,12.73,0,0,0,2.23-.39c.52,0,1.28.54,1.77.35a1.61,1.61,0,0,0,1.16-1.43c.17-.83.6-1,.72-2.15s-2.24-4.43-2.52-4.82l3.66.32s2.63.64,3.56.31A2.77,2.77,0,0,0,351.33,29a8.51,8.51,0,0,1,0-1.75,1.43,1.43,0,0,0-.6-1.49C350.27,25.53,350.44,25.59,349.79,24.66Z" transform="translate(-3.4 -1.55)"/><path class="a3198e96-83c7-4a47-9877-c4a0e9c953ec" d="M335.52,26.59A3.5,3.5,0,0,1,337,27c.3.17,2,1.57,2.14,1.46s-.29-.39-.54-.78-1.1-1.09-1.07-1.22.3.16.68.45.74.95,1,1,.43.27.39,0-.72-1.16-.84-1.49,0-.55.14-.29.79,1.44.92,1.3-.1-.89-.33-1.19a4.17,4.17,0,0,1-.48-1.51c0-.38-.08-1.37-.08-1.37l2.22,4.05.21,2.77s-1,.45-1.18.36-4.31-3.41-4.31-3.41-.6.11-.55-.07S335.37,26.59,335.52,26.59Z" transform="translate(-3.4 -1.55)"/><path class="a3198e96-83c7-4a47-9877-c4a0e9c953ec" d="M346.91,24a12.45,12.45,0,0,1-1,2.78c-.28.62-1.82,1.94-1.58,2s1.71-1.21,2.08-1.24.49-.05,0,.32-2.24,1.24-2.08,1.28a11.87,11.87,0,0,0,2.25-.58c.41-.18,1.27-.5,1.31-.25s-.32.31-.69.42-1.11.48-1.6.56-1,0-1.05.2.12.18.57.16a9.66,9.66,0,0,1,1.24,0c.32,0,.52.28.38.28a9.29,9.29,0,0,1-1.37-.07c-.42-.09-1.14-.24-1.29,0s1.07.29,1.47.33,1.15.09,1.5.17a6.77,6.77,0,0,1,1.37,1s-4.73-.54-4.91-.55a5.52,5.52,0,0,1-1-.82l4.12-5.79Z" transform="translate(-3.4 -1.55)"/><path class="a3198e96-83c7-4a47-9877-c4a0e9c953ec" d="M337.29,34.14a7.61,7.61,0,0,0,1.47-.81c.45-.3,1.05-.92,1.29-1s.48-.13.45.06-1,1.22-1.12,1.56-.18.74,0,.63.18-.67.41-.86a7.42,7.42,0,0,0,1-1.06c.12-.22.08-.51.27-.42s-.54,1.19-.48,1.51.24.26.36,0a3.84,3.84,0,0,0,.39-.91c.05-.28,0-.42.18-.53s.36.61.39,1.14a13.8,13.8,0,0,0,.69,1.93,4.64,4.64,0,0,0,.73,1.57c.28.32.93.73.81.6s-2.39-6.63-2.39-6.63.27-1-.24-.65-3.52,3.21-3.67,3.35Z" transform="translate(-3.4 -1.55)"/><path class="a4138900-a6c9-4335-89fb-f4c41d0f6aed" d="M342.58,20.75a2.24,2.24,0,0,0-2.29.63c-.77.58-1.45.69-1.23,2.56a26.81,26.81,0,0,0,2.29,6.19c-1.06-.66-3.76-2.36-4.48-2.9-.91-.68-1.66-.29-2.53.4s-1.36-.19-2.24.95-.52,2.55-.51,3.57c0,1.25,1,1.22,2.13,2s1.77-.28,3.31-.39,2.46-1.79,3.77-2.36l.74-.78a4.63,4.63,0,0,0,.5,2.5c.79,1.6,1,3.34,1.74,4.09s1.49,1.68,2,1.59a5,5,0,0,0,1.68-1.13,14.36,14.36,0,0,0,1.84-1.53c.31-.48.28-1.35.55-1.7a1.65,1.65,0,0,0,0-2.07c-.55-.64-1-.7-1.89-1.37s-4.82-.88-5.29-.89l2.45-2.76a36.91,36.91,0,0,0,1.89-3.78c.3-1-.8-1.7-.8-1.7a6.7,6.7,0,0,1-1.32-1,1,1,0,0,0-1.25-.35C343.24,20.83,343.67,21,342.58,20.75Z" transform="translate(-3.4 -1.55)"/><path class="f56e433c-6247-425c-9a0c-65342d8f3883" d="M337.06,29.9c.19-.38,2.76.29,3,.18s-1-.22-1.32-.44-1.07-.53-.95-.67,1.07.32,1.18.32,0-.2-.36-.51-.56-.74-.48-.69A32.17,32.17,0,0,1,341,29.92a.91.91,0,0,1,.12.79c-.07.26-.43.51-.89.94s-1,1-1.14,1-.71.68-.93.7-.43.06.15-.46,1.19-.73,1.19-.93-.2-.18-.66-.1-1,.25-1,0,.6-.39,1-.46.7-.43.28-.54-2.69.51-2.7.21,3.08-.51,2.89-.74S336.92,30.17,337.06,29.9Z" transform="translate(-3.4 -1.55)"/><path class="f56e433c-6247-425c-9a0c-65342d8f3883" d="M340.87,23.63a8.76,8.76,0,0,0,.1,2.62c0,.42.23.95-.19,1s-.55-.43-.7-1a16.12,16.12,0,0,0-1-2.14s.78,2.88.8,3,1.48,3.07,1.48,3.07l1.27.21s.45-.48,1-1.19a19,19,0,0,0,1.79-2.26c.36-.67-.05.17-.64.6s-1.17,1.09-1.44.74.44-1.36.4-1.58-.77,1.62-1,1.3.92-3,.79-3.35-.93,2.64-1.25,2.68-.48,0-.72-.58S341,23.08,340.87,23.63Z" transform="translate(-3.4 -1.55)"/><path class="f56e433c-6247-425c-9a0c-65342d8f3883" d="M341.52,31.13a6.78,6.78,0,0,0,.28,1.45c.15.49.78,1.68.86,2s.12.88.2.7-.31-1-.37-1.73-.6-1.28-.25-1.58,1,1.67,1.26,1.49-1.11-1.79-1-2,2.69,3.22,2.77,3-.74-1-1-1.44-1.58-1.56-1.48-1.81.75.16.93.41.81,1.19,1,1.09-.39-.5-.68-1-.9-1-.76-1.08,1.29,1.26,1.41.95-.21-.51-.57-.83-1-.34-.67-.43a9.77,9.77,0,0,1,2.18.4c.35.08,1.45-.05.92-.27a13.27,13.27,0,0,0-2.61-.34l-1.28-.09Z" transform="translate(-3.4 -1.55)"/><path class="e3bdfc5f-cd01-4a57-90bd-1bf9635a1ce4" d="M341.2,30.17c-.14.17-.33.12-.1.4a.72.72,0,0,0,.58.33c.28.06.25.08.49-.09s.62-.22.45-.47a1.59,1.59,0,0,1-.21-.55.65.65,0,0,0-.7-.07A.84.84,0,0,0,341.2,30.17Z" transform="translate(-3.4 -1.55)"/><path class="bea026ef-0a16-454c-88f7-6194f2dc94a5" d="M341.56,27.93c.07.73.72,2.95.84,2.7C342.76,29.91,341.48,27,341.56,27.93Z" transform="translate(-3.4 -1.55)"/><path class="bea026ef-0a16-454c-88f7-6194f2dc94a5" d="M340.54,28.37c.22.7,1.34,2.72,1.41,2.44C342.14,30,340.26,27.48,340.54,28.37Z" transform="translate(-3.4 -1.55)"/><path class="bea026ef-0a16-454c-88f7-6194f2dc94a5" d="M340.74,27c.11.61.81,2.41.89,2.19C341.88,28.58,340.6,26.26,340.74,27Z" transform="translate(-3.4 -1.55)"/><path class="bea026ef-0a16-454c-88f7-6194f2dc94a5" d="M342.28,27.82c.08.51.66,2,.74,1.85C343.23,29.13,342.17,27.16,342.28,27.82Z" transform="translate(-3.4 -1.55)"/><path class="bea026ef-0a16-454c-88f7-6194f2dc94a5" d="M339.53,28.4c.29.53,1.5,2,1.51,1.79C341.07,29.56,339.16,27.74,339.53,28.4Z" transform="translate(-3.4 -1.55)"/><path class="bea026ef-0a16-454c-88f7-6194f2dc94a5" d="M339.39,29.45c.53.23,2.13,1.24,1.93,1.28C340.74,30.82,338.7,29.17,339.39,29.45Z" transform="translate(-3.4 -1.55)"/><path class="bea026ef-0a16-454c-88f7-6194f2dc94a5" d="M339.64,30.26c.55.19,2.2,1.1,2,1.15C341.08,31.54,338.94,30,339.64,30.26Z" transform="translate(-3.4 -1.55)"/><path class="bea026ef-0a16-454c-88f7-6194f2dc94a5" d="M341.32,30.85c.33,0,1.32.27,1.22.33C342.23,31.35,340.92,30.82,341.32,30.85Z" transform="translate(-3.4 -1.55)"/><path class="bea026ef-0a16-454c-88f7-6194f2dc94a5" d="M340.57,31.46c.32,0,1.32.28,1.21.34C341.48,32,340.16,31.44,340.57,31.46Z" transform="translate(-3.4 -1.55)"/><path class="bea026ef-0a16-454c-88f7-6194f2dc94a5" d="M342.6,29.51c0,.34.44,1.35.49,1.21C343.26,30.32,342.54,29.06,342.6,29.51Z" transform="translate(-3.4 -1.55)"/><path class="acef6fe1-79c8-4468-ab43-7103f60b496a" d="M383.81,24.41a2.43,2.43,0,0,0-1.75-1.19c-.92-.28-1.42-.76-2.76.54a26.19,26.19,0,0,0-3.46,5.58c-.13-1.26-.44-4.46-.45-5.37,0-1.14-.79-1.51-1.85-1.81s-1-1.38-2.47-1.41-2,1.29-2.64,2.34.32.86.36,2.24.52,1.53,1.55,2.71,2.89.92,4.14,1.63l1.06.13c-.4.25-.65,1.24-1.66,1.91-1.73,1.15-3,2.36-3.18,3.42a3.32,3.32,0,0,0,.58,2.46,3.81,3.81,0,0,0,2,1.29,12.73,12.73,0,0,0,2.23-.39c.52,0,1.28.54,1.77.34a1.59,1.59,0,0,0,1.16-1.42c.17-.83.6-1,.72-2.15s-2.24-4.43-2.52-4.82l3.66.32s2.63.64,3.56.31a2.77,2.77,0,0,0,1.48-2.35,8.51,8.51,0,0,1,0-1.75,1.43,1.43,0,0,0-.6-1.49C384.29,25.28,384.46,25.34,383.81,24.41Z" transform="translate(-3.4 -1.55)"/><path class="a3198e96-83c7-4a47-9877-c4a0e9c953ec" d="M369.54,26.33a3.65,3.65,0,0,1,1.48.38c.3.17,2,1.57,2.14,1.46s-.29-.39-.54-.78-1.1-1.09-1.07-1.22.29.16.68.45.74.95,1,1,.43.27.39,0-.72-1.16-.84-1.49,0-.55.14-.29.79,1.44.92,1.3-.1-.89-.33-1.2a4.06,4.06,0,0,1-.48-1.5c0-.38-.08-1.37-.08-1.37l2.22,4.05.21,2.77s-1,.45-1.18.36-4.31-3.41-4.31-3.41-.6.1-.55-.07S369.39,26.34,369.54,26.33Z" transform="translate(-3.4 -1.55)"/><path class="a3198e96-83c7-4a47-9877-c4a0e9c953ec" d="M380.93,23.73a12,12,0,0,1-1,2.78c-.27.62-1.81,1.94-1.57,2s1.71-1.21,2.08-1.24.49-.05,0,.32-2.24,1.24-2.08,1.28a11.87,11.87,0,0,0,2.25-.58c.41-.18,1.27-.5,1.31-.25s-.32.31-.69.41a14.74,14.74,0,0,1-1.6.57c-.49.07-1,0-1.05.19s.12.19.57.17a9.66,9.66,0,0,1,1.24,0c.32,0,.52.28.38.28a9.29,9.29,0,0,1-1.37-.07c-.42-.09-1.14-.24-1.29,0s1.07.29,1.47.33,1.15.09,1.5.17a6.77,6.77,0,0,1,1.37,1s-4.73-.54-4.91-.55a5.52,5.52,0,0,1-1-.82l4.12-5.79Z" transform="translate(-3.4 -1.55)"/><path class="a3198e96-83c7-4a47-9877-c4a0e9c953ec" d="M371.3,33.89a7.38,7.38,0,0,0,1.48-.81c.45-.3,1.05-.92,1.29-1s.48-.12.45.07-1,1.21-1.12,1.56-.18.73,0,.63.18-.68.4-.86a7,7,0,0,0,1-1.06c.12-.22.08-.51.27-.42s-.54,1.19-.48,1.5.24.27.36,0a3.84,3.84,0,0,0,.39-.91c0-.28,0-.42.18-.53s.36.61.39,1.14a14.28,14.28,0,0,0,.69,1.93,4.64,4.64,0,0,0,.73,1.57c.28.32.93.73.81.6s-2.39-6.63-2.39-6.63.27-1-.24-.65-3.52,3.2-3.67,3.35Z" transform="translate(-3.4 -1.55)"/><path class="a4138900-a6c9-4335-89fb-f4c41d0f6aed" d="M376.59,20.5a2.23,2.23,0,0,0-2.28.63c-.77.58-1.45.68-1.24,2.56a27.31,27.31,0,0,0,2.3,6.19c-1.06-.66-3.76-2.36-4.48-2.9-.91-.68-1.67-.29-2.53.39s-1.36-.18-2.24,1-.52,2.55-.51,3.57c0,1.25,1,1.22,2.13,2s1.77-.27,3.31-.38,2.46-1.79,3.77-2.36l.74-.78a4.63,4.63,0,0,0,.5,2.5c.79,1.6,1,3.34,1.74,4.09s1.49,1.67,2,1.59a5,5,0,0,0,1.68-1.13,14.36,14.36,0,0,0,1.84-1.53c.31-.48.28-1.35.55-1.7a1.65,1.65,0,0,0,0-2.07A9.26,9.26,0,0,0,382,30.78c-.85-.63-4.82-.88-5.29-.89l2.45-2.76a36.91,36.91,0,0,0,1.89-3.78c.3-1-.8-1.7-.8-1.7a6.7,6.7,0,0,1-1.32-1,1,1,0,0,0-1.25-.35C377.26,20.58,377.69,20.78,376.59,20.5Z" transform="translate(-3.4 -1.55)"/><path class="f56e433c-6247-425c-9a0c-65342d8f3883" d="M371.08,29.65c.19-.38,2.75.29,3,.18s-1-.22-1.32-.44-1.07-.53-.95-.67,1.07.32,1.17.32,0-.2-.35-.51-.56-.75-.48-.69A32.17,32.17,0,0,1,375,29.67a.91.91,0,0,1,.12.79c-.07.26-.43.51-.89.94s-1,1-1.14,1-.71.69-.93.71-.44.06.15-.46,1.19-.73,1.19-.93-.2-.18-.66-.1-1,.25-1,0,.6-.39,1-.46.7-.44.28-.54-2.69.51-2.7.21,3.08-.51,2.89-.74S370.94,29.92,371.08,29.65Z" transform="translate(-3.4 -1.55)"/><path class="f56e433c-6247-425c-9a0c-65342d8f3883" d="M374.89,23.38A8.76,8.76,0,0,0,375,26c0,.41.23.95-.19,1s-.55-.43-.7-1a16.12,16.12,0,0,0-1-2.14s.78,2.88.8,3,1.48,3.07,1.48,3.07l1.27.21s.45-.48,1-1.19a19.81,19.81,0,0,0,1.79-2.26c.36-.67-.05.17-.64.6s-1.17,1.09-1.44.74.44-1.36.39-1.58-.76,1.62-1,1.3.92-3,.79-3.35S376.61,27,376.29,27s-.48,0-.72-.58S375,22.83,374.89,23.38Z" transform="translate(-3.4 -1.55)"/><path class="f56e433c-6247-425c-9a0c-65342d8f3883" d="M375.54,30.88a6.78,6.78,0,0,0,.28,1.45c.15.49.78,1.68.86,2s.12.88.2.7-.31-1-.37-1.73-.6-1.28-.25-1.58,1,1.67,1.26,1.49-1.11-1.79-1-2,2.69,3.22,2.77,3-.74-1-1-1.44-1.59-1.57-1.48-1.81.75.16.93.41.81,1.19,1,1.09-.39-.5-.68-1-.9-1-.76-1.08,1.28,1.26,1.41.95-.21-.51-.57-.83-1-.34-.67-.44a10.53,10.53,0,0,1,2.18.41c.35.08,1.45-.05.92-.27A13.27,13.27,0,0,0,378,30l-1.28-.09Z" transform="translate(-3.4 -1.55)"/><path class="e3bdfc5f-cd01-4a57-90bd-1bf9635a1ce4" d="M375.22,29.92c-.14.17-.33.12-.1.4a.75.75,0,0,0,.58.33c.28.06.25.08.48-.09s.63-.22.46-.47a1.67,1.67,0,0,1-.21-.55.65.65,0,0,0-.7-.07A.84.84,0,0,0,375.22,29.92Z" transform="translate(-3.4 -1.55)"/><path class="bea026ef-0a16-454c-88f7-6194f2dc94a5" d="M375.58,27.68c.07.73.72,2.95.84,2.7C376.78,29.66,375.5,26.76,375.58,27.68Z" transform="translate(-3.4 -1.55)"/><path class="bea026ef-0a16-454c-88f7-6194f2dc94a5" d="M374.56,28.12c.22.69,1.34,2.72,1.4,2.44C376.16,29.78,374.28,27.23,374.56,28.12Z" transform="translate(-3.4 -1.55)"/><path class="bea026ef-0a16-454c-88f7-6194f2dc94a5" d="M374.76,26.77c.11.61.81,2.41.89,2.19C375.9,28.33,374.62,26,374.76,26.77Z" transform="translate(-3.4 -1.55)"/><path class="bea026ef-0a16-454c-88f7-6194f2dc94a5" d="M376.3,27.57c.08.51.66,2,.74,1.85C377.25,28.88,376.19,26.91,376.3,27.57Z" transform="translate(-3.4 -1.55)"/><path class="bea026ef-0a16-454c-88f7-6194f2dc94a5" d="M373.55,28.15c.29.53,1.5,2,1.51,1.78C375.09,29.31,373.18,27.49,373.55,28.15Z" transform="translate(-3.4 -1.55)"/><path class="bea026ef-0a16-454c-88f7-6194f2dc94a5" d="M373.41,29.2c.53.22,2.13,1.24,1.93,1.27C374.76,30.57,372.72,28.92,373.41,29.2Z" transform="translate(-3.4 -1.55)"/><path class="bea026ef-0a16-454c-88f7-6194f2dc94a5" d="M373.66,30c.55.19,2.2,1.1,2,1.15C375.1,31.29,373,29.77,373.66,30Z" transform="translate(-3.4 -1.55)"/><path class="bea026ef-0a16-454c-88f7-6194f2dc94a5" d="M375.34,30.59c.33,0,1.32.28,1.22.34C376.25,31.1,374.93,30.57,375.34,30.59Z" transform="translate(-3.4 -1.55)"/><path class="bea026ef-0a16-454c-88f7-6194f2dc94a5" d="M374.59,31.21c.32,0,1.32.28,1.21.34C375.5,31.72,374.18,31.19,374.59,31.21Z" transform="translate(-3.4 -1.55)"/><path class="bea026ef-0a16-454c-88f7-6194f2dc94a5" d="M376.62,29.26c.05.34.44,1.34.49,1.21C377.28,30.06,376.55,28.81,376.62,29.26Z" transform="translate(-3.4 -1.55)"/><path class="acef6fe1-79c8-4468-ab43-7103f60b496a" d="M373.35,49.29a2.46,2.46,0,0,0-1-1.86c-.69-.68-.92-1.34-2.7-.8A26,26,0,0,0,364,50c.46-1.17,1.62-4.16,2-5,.49-1,0-1.71-.83-2.46s-.31-1.72-1.57-2.4-2.35.22-3.41.85-.1.91-.69,2.15-.22,1.61.16,3.13,2.17,2.16,3,3.37l.89.6c-.47,0-1.14.8-2.34.93-2.06.22-3.78.69-4.37,1.56a3.19,3.19,0,0,0-.59,2.45,3.82,3.82,0,0,0,1.2,2.08,12.75,12.75,0,0,0,2.17.68c.48.21.89,1.08,1.42,1.13a1.56,1.56,0,0,0,1.67-.73c.53-.65,1-.63,1.62-1.57s0-5-.08-5.44l3.12,2s2.06,1.8,3,1.93a2.73,2.73,0,0,0,2.37-1.39,8.25,8.25,0,0,1,.79-1.57,1.43,1.43,0,0,0,.14-1.59C373.39,50.28,373.51,50.42,373.35,49.29Z" transform="translate(-3.4 -1.55)"/><path class="a3198e96-83c7-4a47-9877-c4a0e9c953ec" d="M359.76,44.39a3.74,3.74,0,0,1,1.15,1,16.62,16.62,0,0,0,1.25,2.29c.18,0-.09-.47-.13-.95s-.49-1.47-.41-1.57.2.28.41.72.23,1.19.45,1.31.26.44.34.21-.13-1.37-.09-1.71.23-.51.26-.2.06,1.64.24,1.58.31-.84.24-1.21a4.18,4.18,0,0,1,.25-1.56c.13-.36.55-1.25.55-1.25l.15,4.62-1.06,2.55s-1.09-.06-1.21-.22-2.31-5-2.31-5-.58-.19-.45-.32S359.63,44.32,359.76,44.39Z" transform="translate(-3.4 -1.55)"/><path class="a3198e96-83c7-4a47-9877-c4a0e9c953ec" d="M371.09,47.35a11.72,11.72,0,0,1-2.18,2c-.52.42-2.49.89-2.31,1s2.07-.27,2.41-.13.46.18-.11.3-2.56.06-2.43.17a11.82,11.82,0,0,0,2.26.53c.45,0,1.37.15,1.29.38s-.43.13-.81,0a14.43,14.43,0,0,1-1.68-.24c-.47-.17-.94-.46-1-.32s0,.23.43.42a7.61,7.61,0,0,1,1.09.6c.27.19.34.49.22.42a7.36,7.36,0,0,1-1.19-.7c-.33-.27-.91-.73-1.14-.61s.82.75,1.16,1,1,.62,1.26.85a6.64,6.64,0,0,1,.79,1.48L365,51.8a5.38,5.38,0,0,1-.51-1.18l6.27-3.23Z" transform="translate(-3.4 -1.55)"/><path class="a3198e96-83c7-4a47-9877-c4a0e9c953ec" d="M357.93,51.91a7.54,7.54,0,0,0,1.69,0c.52-.06,1.34-.32,1.61-.32s.48.11.37.27-1.46.61-1.7.87-.49.56-.32.54.47-.52.75-.58a7.05,7.05,0,0,0,1.36-.49c.2-.14.3-.41.42-.24s-1,.8-1.1,1.11.09.35.31.18a3.5,3.5,0,0,0,.76-.62c.17-.23.22-.36.4-.39s0,.71-.16,1.19a14.07,14.07,0,0,0-.27,2,4.84,4.84,0,0,0-.05,1.73,2.59,2.59,0,0,0,.45.91c-.05-.17.86-7,.86-7s.71-.8.08-.69-4.59,1.22-4.78,1.28S357.93,51.91,357.93,51.91Z" transform="translate(-3.4 -1.55)"/><path class="a4138900-a6c9-4335-89fb-f4c41d0f6aed" d="M368.68,42.48a2.25,2.25,0,0,0-2.33-.5c-.94.15-1.6-.07-2.25,1.7a27.07,27.07,0,0,0-.74,6.55c-.64-1.07-2.29-3.83-2.69-4.65-.5-1-1.35-1-2.43-.82s-1.13-.79-2.42-.19-1.62,2-2.07,2.94c-.55,1.11.37,1.55,1,2.78s1.7.58,3.12,1.19,3-.45,4.42-.35l1-.35a4.56,4.56,0,0,0-.68,2.45c0,1.79-.62,3.43-.29,4.44s.57,2.18,1.07,2.35a4.94,4.94,0,0,0,2-.23,12.89,12.89,0,0,0,2.33-.51c.49-.28.85-1.06,1.25-1.25a1.61,1.61,0,0,0,1-1.82,9.55,9.55,0,0,0-1.06-2.09c-.48-1-3.91-3-4.32-3.25L368,49.56a35.55,35.55,0,0,0,3.4-2.48c.69-.71,0-1.88,0-1.88a6.65,6.65,0,0,1-.73-1.47,1,1,0,0,0-1-.89C369.24,42.86,369.52,43.24,368.68,42.48Z" transform="translate(-3.4 -1.55)"/><path class="f56e433c-6247-425c-9a0c-65342d8f3883" d="M359.64,48c.34-.25,2.33,1.53,2.6,1.56s-.8-.66-1-1-.71-1-.55-1,.82.78.91.83.1-.18-.08-.61-.17-.93-.12-.85a34.38,34.38,0,0,1,1.74,3,.87.87,0,0,1-.25.75c-.18.2-.61.25-1.21.43s-1.36.35-1.49.38a3.67,3.67,0,0,1-1.14.2c-.21-.08-.42-.15.34-.34s1.39-.09,1.48-.28-.11-.24-.55-.39-1-.23-.91-.45.7-.07,1.08,0,.81-.06.48-.35-2.62-.8-2.49-1.06,3,1,2.91.68S359.4,48.22,359.64,48Z" transform="translate(-3.4 -1.55)"/><path class="f56e433c-6247-425c-9a0c-65342d8f3883" d="M365.86,44.24a9,9,0,0,0-1.09,2.37c-.16.39-.22,1-.6.77s-.3-.64-.17-1.23a17.07,17.07,0,0,0,.06-2.36s-.6,2.91-.64,3-.06,3.41-.06,3.41l1,.78s.61-.22,1.45-.58a19.2,19.2,0,0,0,2.6-1.18c.64-.43-.11.13-.83.23s-1.54.43-1.62,0,1-1,1.07-1.23-1.42,1.09-1.5.69,2.17-2.24,2.21-2.61-2,1.92-2.32,1.8-.44-.19-.38-.85S366.25,43.82,365.86,44.24Z" transform="translate(-3.4 -1.55)"/><path class="f56e433c-6247-425c-9a0c-65342d8f3883" d="M363.06,51.2a6.3,6.3,0,0,0-.4,1.41c-.09.51-.06,1.86-.14,2.21s-.3.84-.15.71.17-1,.46-1.71,0-1.41.48-1.52.18,2,.46,1.91-.19-2.1,0-2.2.94,4.11,1.11,4-.22-1.22-.25-1.74-.7-2.12-.5-2.29.6.49.65.8.18,1.42.42,1.44-.12-.63-.16-1.19-.35-1.3-.19-1.3.58,1.71.83,1.49,0-.55-.14-1-.71-.75-.4-.7a10,10,0,0,1,1.76,1.37c.28.23,1.32.63.94.19a14,14,0,0,0-2.17-1.52l-1.1-.67Z" transform="translate(-3.4 -1.55)"/><path class="e3bdfc5f-cd01-4a57-90bd-1bf9635a1ce4" d="M363.21,50.2c-.2.09-.35,0-.27.31a.78.78,0,0,0,.37.56c.22.18.18.19.47.14s.66.1.62-.2a1.43,1.43,0,0,1,.06-.58.66.66,0,0,0-.59-.39A.82.82,0,0,0,363.21,50.2Z" transform="translate(-3.4 -1.55)"/><path class="bea026ef-0a16-454c-88f7-6194f2dc94a5" d="M364.54,48.38c-.27.68-.69,2.95-.47,2.79C364.72,50.69,364.89,47.53,364.54,48.38Z" transform="translate(-3.4 -1.55)"/><path class="bea026ef-0a16-454c-88f7-6194f2dc94a5" d="M363.43,48.3c-.11.72,0,3,.15,2.82C364.11,50.51,363.58,47.38,363.43,48.3Z" transform="translate(-3.4 -1.55)"/><path class="bea026ef-0a16-454c-88f7-6194f2dc94a5" d="M364.22,47.19c-.18.59-.37,2.52-.19,2.36C364.53,49.11,364.44,46.45,364.22,47.19Z" transform="translate(-3.4 -1.55)"/><path class="bea026ef-0a16-454c-88f7-6194f2dc94a5" d="M365.23,48.61c-.16.49-.33,2.12-.18,2C365.49,50.22,365.43,48,365.23,48.61Z" transform="translate(-3.4 -1.55)"/><path class="bea026ef-0a16-454c-88f7-6194f2dc94a5" d="M362.52,47.86a6.69,6.69,0,0,0,.54,2.28C363.37,49.6,362.49,47.1,362.52,47.86Z" transform="translate(-3.4 -1.55)"/><path class="bea026ef-0a16-454c-88f7-6194f2dc94a5" d="M361.92,48.72c.37.45,1.34,2.09,1.14,2C362.51,50.57,361.43,48.16,361.92,48.72Z" transform="translate(-3.4 -1.55)"/><path class="bea026ef-0a16-454c-88f7-6194f2dc94a5" d="M361.78,49.56c.4.42,1.47,2,1.27,1.95C362.49,51.36,361.26,49,361.78,49.56Z" transform="translate(-3.4 -1.55)"/><path class="bea026ef-0a16-454c-88f7-6194f2dc94a5" d="M363,50.86c.28.16,1.05.85.93.86C363.6,51.73,362.66,50.65,363,50.86Z" transform="translate(-3.4 -1.55)"/><path class="bea026ef-0a16-454c-88f7-6194f2dc94a5" d="M362.07,51.06c.28.16,1.05.85.93.85C362.65,51.92,361.71,50.85,362.07,51.06Z" transform="translate(-3.4 -1.55)"/><path class="bea026ef-0a16-454c-88f7-6194f2dc94a5" d="M364.76,50.26c-.11.33-.22,1.4-.11,1.3C365,51.28,364.9,49.84,364.76,50.26Z" transform="translate(-3.4 -1.55)"/><path class="acef6fe1-79c8-4468-ab43-7103f60b496a" d="M390.12,53.62a2.54,2.54,0,0,0,.75-2c.06-1,.42-1.56-1.13-2.61a25.92,25.92,0,0,0-6.13-2.25c1.18-.39,4.19-1.38,5.07-1.59,1.09-.26,1.28-1.1,1.32-2.21s1.11-1.32.82-2.74-1.68-1.7-2.84-2.12-.76.5-2.07.83-1.36.84-2.27,2.11-.24,3.06-.66,4.44l.12,1.09c-.33-.35-1.34-.38-2.2-1.24-1.49-1.47-2.95-2.52-4-2.42A3.16,3.16,0,0,0,374.66,44a3.93,3.93,0,0,0-.8,2.26,13.42,13.42,0,0,0,.87,2.13c.16.51-.24,1.38.06,1.82a1.58,1.58,0,0,0,1.63.85c.83,0,1.12.38,2.23.26s3.77-3.16,4.08-3.51l.5,3.68s0,2.75.49,3.6a2.72,2.72,0,0,0,2.58,1,7.63,7.63,0,0,1,1.69-.37,1.4,1.4,0,0,0,1.3-.91C389.38,54.28,389.36,54.46,390.12,53.62Z" transform="translate(-3.4 -1.55)"/><path class="a3198e96-83c7-4a47-9877-c4a0e9c953ec" d="M385.11,39.89a3.76,3.76,0,0,1,0,1.55,17.22,17.22,0,0,0-.93,2.43c.14.11.31-.37.64-.7s.8-1.32.93-1.32-.09.33-.29.77-.75.94-.71,1.19-.16.48.07.39,1-1,1.24-1.15.53-.15.31.07-1.2,1.09-1,1.19.84-.29,1.08-.58a3.84,3.84,0,0,1,1.34-.79c.35-.13,1.3-.37,1.3-.37l-3.41,3.06-2.61.79s-.66-.89-.62-1.08,2.33-5,2.33-5-.23-.57-.05-.56S385.07,39.75,385.11,39.89Z" transform="translate(-3.4 -1.55)"/><path class="a3198e96-83c7-4a47-9877-c4a0e9c953ec" d="M390.13,50.62a11.84,11.84,0,0,1-2.9-.43c-.66-.14-2.27-1.38-2.28-1.14s1.53,1.44,1.64,1.8.16.47-.3.1-1.68-2-1.68-1.79a11,11,0,0,0,1.05,2.1c.27.37.76,1.16.53,1.25s-.37-.25-.55-.6a13.71,13.71,0,0,1-.9-1.46c-.18-.47-.26-1-.42-1s-.15.16,0,.6a9.07,9.07,0,0,1,.24,1.23c0,.34-.16.58-.18.44a10.53,10.53,0,0,1-.24-1.37c0-.43,0-1.18-.26-1.28s0,1.12,0,1.53.16,1.15.16,1.52a6.93,6.93,0,0,1-.62,1.56l-.55-5a5.22,5.22,0,0,1,.57-1.16l6.48,2.85Z" transform="translate(-3.4 -1.55)"/><path class="a3198e96-83c7-4a47-9877-c4a0e9c953ec" d="M378.22,43.25a7.34,7.34,0,0,0,1.12,1.29c.38.38,1.1.84,1.27,1.05s.23.45,0,.46-1.39-.75-1.75-.77-.75,0-.61.1.69,0,.91.21a7.14,7.14,0,0,0,1.25.75c.23.08.5,0,.45.18s-1.26-.28-1.55-.16-.21.3.06.37a4.62,4.62,0,0,0,1,.19c.28,0,.41-.05.54.06s-.5.49-1,.63a15,15,0,0,0-1.71,1.09,4.71,4.71,0,0,0-1.35,1.06,2.37,2.37,0,0,0-.4.93c.09-.15,5.86-3.77,5.86-3.77s1.06,0,.57-.39-3.86-2.8-4-2.91S378.22,43.25,378.22,43.25Z" transform="translate(-3.4 -1.55)"/><path class="a4138900-a6c9-4335-89fb-f4c41d0f6aed" d="M392.28,45.64a2.31,2.31,0,0,0-1.11-2.13c-.73-.64-1-1.29-2.74-.68A26.12,26.12,0,0,0,383,46.42c.4-1.18,1.43-4.22,1.79-5.05.45-1-.09-1.71-.94-2.42s-.11-1.39-1.4-2-2.58,0-3.56.25c-1.19.27-.94,1.27-1.47,2.54s.65,1.69,1.1,3.19,2.26,2.06,3.1,3.23l.92.57a4.44,4.44,0,0,0-2.3,1c-1.37,1.12-3,1.69-3.55,2.59s-1.28,1.83-1.09,2.34,1.06,1.09,1.46,1.41a13.89,13.89,0,0,0,1.88,1.5c.53.2,1.36,0,1.76.18a1.56,1.56,0,0,0,2-.41,9.33,9.33,0,0,0,.91-2.16c.41-1-.23-5-.32-5.43l3.2,1.84a34.5,34.5,0,0,0,4.06,1.07c1,.09,1.45-1.16,1.45-1.16a7.21,7.21,0,0,1,.65-1.51,1,1,0,0,0,.06-1.31C392.35,46.32,392.25,46.79,392.28,45.64Z" transform="translate(-3.4 -1.55)"/><path class="f56e433c-6247-425c-9a0c-65342d8f3883" d="M382.26,42.12c.4.11.33,2.79.49,3s0-1,.13-1.4.27-1.17.43-1.08-.06,1.13-.05,1.23.2,0,.42-.46.59-.71.56-.62a34.4,34.4,0,0,1-1.13,3.25.88.88,0,0,1-.73.28c-.27,0-.58-.32-1.1-.68s-1.14-.83-1.25-.91-.82-.56-.89-.77-.15-.42.48.05,1,1,1.16,1,.12-.24,0-.68-.45-.9-.25-1,.51.51.67.87.57.6.57.16-1.08-2.56-.79-2.63,1.17,3,1.35,2.71S382,42.05,382.26,42.12Z" transform="translate(-3.4 -1.55)"/><path class="f56e433c-6247-425c-9a0c-65342d8f3883" d="M389.13,44.56a8.54,8.54,0,0,0-2.5.66c-.39.12-.86.43-1,0s.3-.64.83-.91a16.75,16.75,0,0,0,1.83-1.46s-2.59,1.39-2.71,1.43S383,46.42,383,46.42l.07,1.31s.56.34,1.37.76A19.77,19.77,0,0,0,387,49.77c.73.22-.17,0-.71-.51s-1.32-.92-1-1.26,1.41.15,1.61,0-1.73-.41-1.47-.73,3.08.28,3.39.07-2.74-.35-2.85-.67-.14-.46.4-.83S389.7,44.6,389.13,44.56Z" transform="translate(-3.4 -1.55)"/><path class="f56e433c-6247-425c-9a0c-65342d8f3883" d="M382.06,46.8a6,6,0,0,0-1.33.59c-.44.25-1.45,1.13-1.77,1.29s-.82.3-.63.34.87-.52,1.59-.73,1.1-.87,1.46-.59-1.38,1.39-1.15,1.57,1.47-1.49,1.67-1.4-2.51,3.35-2.31,3.39.79-.94,1.16-1.29,1.16-1.9,1.42-1.85,0,.77-.19,1-1,1-.82,1.25.39-.49.79-.88.77-1.1.87-1-.92,1.54-.59,1.6.44-.32.66-.75.12-1,.27-.76a10.37,10.37,0,0,1,.1,2.25c0,.37.36,1.43.46.85a13.8,13.8,0,0,0-.25-2.65c-.05-.35-.2-1.29-.2-1.29Z" transform="translate(-3.4 -1.55)"/><path class="e3bdfc5f-cd01-4a57-90bd-1bf9635a1ce4" d="M382.91,46.28c-.19-.09-.19-.3-.4,0a.72.72,0,0,0-.19.65c0,.28,0,.26.19.45s.35.58.55.36a1.45,1.45,0,0,1,.48-.33.67.67,0,0,0-.08-.71A.85.85,0,0,0,382.91,46.28Z" transform="translate(-3.4 -1.55)"/><path class="bea026ef-0a16-454c-88f7-6194f2dc94a5" d="M385.14,46.17c-.68.22-2.67,1.33-2.41,1.4C383.51,47.77,386,45.89,385.14,46.17Z" transform="translate(-3.4 -1.55)"/><path class="bea026ef-0a16-454c-88f7-6194f2dc94a5" d="M384.5,45.25c-.62.36-2.32,1.9-2,1.91C383.25,47.18,385.29,44.78,384.5,45.25Z" transform="translate(-3.4 -1.55)"/><path class="bea026ef-0a16-454c-88f7-6194f2dc94a5" d="M385.84,45.16c-.56.23-2.14,1.31-1.91,1.35C384.59,46.62,386.55,44.86,385.84,45.16Z" transform="translate(-3.4 -1.55)"/><path class="bea026ef-0a16-454c-88f7-6194f2dc94a5" d="M385.41,46.85c-.47.19-1.81,1.09-1.62,1.13C384.36,48.08,386,46.6,385.41,46.85Z" transform="translate(-3.4 -1.55)"/><path class="bea026ef-0a16-454c-88f7-6194f2dc94a5" d="M384.24,44.25c-.44.4-1.59,1.92-1.38,1.88C383.47,46,384.8,43.75,384.24,44.25Z" transform="translate(-3.4 -1.55)"/><path class="bea026ef-0a16-454c-88f7-6194f2dc94a5" d="M383.2,44.33a6.78,6.78,0,0,1-.8,2.19C382.19,46,383.32,43.6,383.2,44.33Z" transform="translate(-3.4 -1.55)"/><path class="bea026ef-0a16-454c-88f7-6194f2dc94a5" d="M382.48,44.76a7,7,0,0,1-.66,2.23C381.57,46.46,382.56,44,382.48,44.76Z" transform="translate(-3.4 -1.55)"/><path class="bea026ef-0a16-454c-88f7-6194f2dc94a5" d="M382.29,46.55c0,.32,0,1.36-.06,1.27C382,47.55,382.22,46.14,382.29,46.55Z" transform="translate(-3.4 -1.55)"/><path class="bea026ef-0a16-454c-88f7-6194f2dc94a5" d="M381.53,45.94c.05.32,0,1.36,0,1.27C381.24,46.94,381.46,45.53,381.53,45.94Z" transform="translate(-3.4 -1.55)"/><path class="bea026ef-0a16-454c-88f7-6194f2dc94a5" d="M383.86,47.53c-.32.12-1.2.72-1.05.75C383.23,48.35,384.27,47.37,383.86,47.53Z" transform="translate(-3.4 -1.55)"/><path class="a447033a-557e-4df1-a001-0e85cebbbfb3" d="M188.37,92.93V73h7.93V66.09H172.52V73h7.93V92.93Zm24,0V85.87h3.42l4.75,7.06H230l-6.36-8.88a9.29,9.29,0,0,0,4.52-8.21c0-6.16-4.44-9.75-11.66-9.75H204.45V92.93Zm4.12-14.09h-4.12v-6h4.12c2.16,0,3.77,1.15,3.77,2.92s-1.61,3.08-3.77,3.08Zm32.91,14.68c8.09,0,12.87-4.77,12.87-13.57V66.09h-8V80.22c0,3.67-1.85,5.88-4.87,5.88s-4.86-2.21-4.86-5.88V66.09h-8V80c0,8.8,4.79,13.57,12.87,13.57Zm38.56-.59,0-7.3,10.48-19.54h-8.75l-5.73,10.58-5.65-10.58h-8.75L280,85.63l0,7.3Zm38.79,0V86.26H313.88V82.75h11v-6.4h-11V72.76h12.83V66.09H306V92.93Zm16.63,0V80.26l11.14,12.67h6.16V66.09h-7.92V79L341.61,66.09h-6.16V92.93Zm43.38,0,0-7.3,10.48-19.54h-8.75l-5.73,10.58L377,66.09h-8.75l10.48,19.54,0,7.3Zm34.68,0,0-7.3,10.47-19.54h-8.75l-5.72,10.58L411.7,66.09H403l10.48,19.54,0,7.3Z" transform="translate(-3.4 -1.55)"/><path class="bcc172e7-025a-4457-8313-6cf1fec4b5f8" d="M198.27,124.9c.06.59-.32,1-1.12,1.24a4.53,4.53,0,0,0-1.14,0,20,20,0,0,0-3.4.87,28,28,0,0,0-4.79,1.69,2.89,2.89,0,0,0-.76.55c-.24.23-.38.35-.44.35-.3,0-1.17-.48-2.62-1.57q-.6-.36-1.2-.78a1.29,1.29,0,0,1-.63-1,37,37,0,0,1,2.61-3.94q3.22-4.57,5-7.65c1.82-3.23,2.81-5.79,2.95-7.67a11.61,11.61,0,0,0-4.7,4.33.84.84,0,0,0-.22.56,1.15,1.15,0,0,1-.17.56,1,1,0,0,1-.87.39,4.55,4.55,0,0,1-2.41-1l-1.2-.66q-.72-.39-.75-.69c0-.46.46-1.35,1.5-2.68a19.07,19.07,0,0,1,3.73-3.58,7.67,7.67,0,0,1,4.34-1.81,2.34,2.34,0,0,1,1.37.47c.43.31.84.63,1.24,1a8.52,8.52,0,0,1,3.1,3.19,2.13,2.13,0,0,1,.12.78c0,1.41-.74,3.69-2.22,6.86a48,48,0,0,1-4.52,7.8c.62-.2,1.49-.5,2.59-.91a5.43,5.43,0,0,0,.63-.42.84.84,0,0,1,.58-.18c.48.06,1.15.63,2,1.7A6.16,6.16,0,0,1,198.27,124.9Z" transform="translate(-3.4 -1.55)"/><path class="bcc172e7-025a-4457-8313-6cf1fec4b5f8" d="M214.16,104.32c1,.22,1.76,1.26,2.34,3.13a23.11,23.11,0,0,1,.78,6.5,32.91,32.91,0,0,1-1.23,8.91q-1.77,6.28-5.18,6.29a4.17,4.17,0,0,1-1.32-.27l-1.38-.51c-.55-.23-1.44-.56-2.68-1q-1.52-.51-2.47-4.27a32.61,32.61,0,0,1-.9-8,27.33,27.33,0,0,1,.93-7.64c.68-2.37,1.68-3.78,3-4.24a1,1,0,0,1,.24,0,1,1,0,0,1,.51.18q.3.18.45.12a5.59,5.59,0,0,1,1.81-.3,9.57,9.57,0,0,1,2.59.45C213.13,104,214,104.28,214.16,104.32Zm-3.8,1.93c-1,0-1.71,1.08-2.25,3.25a25.94,25.94,0,0,0-.64,6.11,30,30,0,0,0,.64,6c.42,2.13.83,3.19,1.23,3.19.78,0,1.42-1.22,1.93-3.67a39.79,39.79,0,0,0,.63-7.52,29.7,29.7,0,0,0-.36-5.12C211.26,107,210.86,106.25,210.36,106.25Z" transform="translate(-3.4 -1.55)"/><path class="bcc172e7-025a-4457-8313-6cf1fec4b5f8" d="M237.39,124.9c.06.59-.31,1-1.12,1.24a4.53,4.53,0,0,0-1.14,0,20.3,20.3,0,0,0-3.4.87,28,28,0,0,0-4.79,1.69,2.89,2.89,0,0,0-.76.55c-.23.23-.38.35-.44.35-.3,0-1.17-.48-2.62-1.57q-.6-.36-1.2-.78a1.29,1.29,0,0,1-.63-1,36.37,36.37,0,0,1,2.62-3.94q3.21-4.57,5-7.65,2.74-4.85,2.95-7.67a11.59,11.59,0,0,0-4.69,4.33.79.79,0,0,0-.23.56,1.15,1.15,0,0,1-.17.56,1,1,0,0,1-.87.39,4.55,4.55,0,0,1-2.41-1l-1.2-.66q-.72-.39-.75-.69c0-.46.46-1.35,1.5-2.68a19.35,19.35,0,0,1,3.73-3.58,7.67,7.67,0,0,1,4.34-1.81,2.32,2.32,0,0,1,1.37.47c.43.31.84.63,1.25,1a8.68,8.68,0,0,1,3.1,3.19,2.13,2.13,0,0,1,.12.78c0,1.41-.75,3.69-2.23,6.86a48,48,0,0,1-4.52,7.8c.63-.2,1.49-.5,2.59-.91a6.24,6.24,0,0,0,.64-.42A.83.83,0,0,1,234,121c.48.06,1.16.63,2,1.7A6.16,6.16,0,0,1,237.39,124.9Z" transform="translate(-3.4 -1.55)"/><path class="bcc172e7-025a-4457-8313-6cf1fec4b5f8" d="M255.68,109.32c-.14,1.4-1.05,3.09-2.73,5.05a7.53,7.53,0,0,1,3,5.84,9.34,9.34,0,0,1-3,6.47q-2.72,2.77-5.09,2.92c-.64,0-2-.74-3.94-2.35s-2.9-2.55-2.92-3a1.54,1.54,0,0,1,.66-1.26,2,2,0,0,1,1.32-.54c.29,0,.74.39,1.36,1.11a3.33,3.33,0,0,0,1.71,1.23c.83.19,1.94-.65,3.34-2.49s2-3,2-3.89q0-.54-.69-.54a2.06,2.06,0,0,0-1.14.48l-.95.68a1.26,1.26,0,0,1-.92.29,4.08,4.08,0,0,1-1.64-1,10.46,10.46,0,0,1-1.85-1.86.81.81,0,0,1-.15-.48,1.24,1.24,0,0,1,.81-1.21,10.05,10.05,0,0,0,2.77-2.16,10.65,10.65,0,0,0,2.92-5.18,5.38,5.38,0,0,0-2.68,2.24,8.21,8.21,0,0,1-1.84,2.09c-.38.14-1.1-.1-2.18-.72a6.49,6.49,0,0,1-2.09-1.65.49.49,0,0,1-.09-.3,2.53,2.53,0,0,1,.81-1.39A45.37,45.37,0,0,1,246,104.2a5.48,5.48,0,0,1,3.74-1.56,6.29,6.29,0,0,1,4.07,2.43C255.2,106.62,255.82,108,255.68,109.32Z" transform="translate(-3.4 -1.55)"/><path class="b92ebff2-b12f-42cd-aa8f-b7eee82a8484" d="M155.35,65.06A211,211,0,0,1,161,87.61,61.55,61.55,0,0,1,162.38,102,25.62,25.62,0,0,1,158,115.71c-6.82,9.48-19.5,12.11-30.4,11.35a4.31,4.31,0,0,1-4.1-3.08c-.91.08-1.83.15-2.75.2a4.3,4.3,0,0,1-4,2.88A52.77,52.77,0,0,1,92,122.93l-.27-.13c-4.24-.4-8.47-.78-12.7-.92A10.51,10.51,0,0,1,74.08,128c-8.12,4.58-20.16,3.76-29,2.08-9.86-1.88-19.69-5.84-27.34-12.46C-.52,101.82-.79,70.68,13.82,52.33c8.9-11.16,22.64-17.91,36.79-19.82s28.65.72,42,5.87c7.61,2.94,15.34,4.16,23.44,5.08s16.36,1.81,23.81,5.11S153,57.27,155.35,65.06Z" transform="translate(-3.4 -1.55)"/><path class="e57cb7d8-8896-471c-bec0-23e1b4c78ab0" d="M110.85,42.81C105,56.8,93.31,69.7,79.06,73.62A98.19,98.19,0,0,1,56.75,77c-3,.1-6,.08-9-.07h0A106,106,0,0,1,21.5,72.22,102.07,102.07,0,0,1,6.34,66.09c.46-1.33,1-2.64,1.55-3.93a45.92,45.92,0,0,1,5.93-9.83c8.9-11.16,22.64-17.91,36.79-19.82a72.89,72.89,0,0,1,17-.25h0a95.17,95.17,0,0,1,25,6.12A81.41,81.41,0,0,0,110.85,42.81Z" transform="translate(-3.4 -1.55)"/><path class="e57cb7d8-8896-471c-bec0-23e1b4c78ab0" d="M161,87.61q-1.49-7.85-3.58-15.56c-3.9,3.64-7.41,7.73-9.44,12.64-2.47,6-2.31,13.44,1.86,18.4,2.86,3.4,7,5.12,11.48,5.8a30,30,0,0,0,1.1-6.85A61,61,0,0,0,161,87.61Z" transform="translate(-3.4 -1.55)"/><path class="e57cb7d8-8896-471c-bec0-23e1b4c78ab0" d="M69.9,64.58c-1.47,4.83-6.14,7.84-11.05,9.43q-1.14.36-2.28.63c-3,.7-5.88,1.53-8.83,2.29h0c-1.7.44-3.41.86-5.14,1.23C37,79.33,30.66,81.41,26.84,85.93a9.63,9.63,0,0,0-2.3,8.17h0C25.8,99.42,31.76,102,32,107.7a13,13,0,0,1-1,5.37,21.53,21.53,0,0,1-7,8.82l-.19.14a44.28,44.28,0,0,1-3.68-2.52c-.8-.6-1.58-1.23-2.34-1.88C8.92,110,4.29,98.76,3.52,87.12a53.73,53.73,0,0,1,2.82-21c.46-1.33,1-2.64,1.55-3.93a50.27,50.27,0,0,1,10.48-7.11,80.33,80.33,0,0,1,23.56-7.24,45.15,45.15,0,0,1,13-.65,19.56,19.56,0,0,1,11.65,5.39L67,53A12.51,12.51,0,0,1,69.9,64.58Z" transform="translate(-3.4 -1.55)"/><path class="e57cb7d8-8896-471c-bec0-23e1b4c78ab0" d="M67.6,49.08c-.16,1.31-.36,2.62-.6,3.92a58.29,58.29,0,0,1-8.15,21c-.66,1-1.36,2-2.1,3-.53.7-1.08,1.38-1.65,2.06C48,87.43,37.69,93.28,26.74,94c-.74,0-1.47.08-2.19.08a35.44,35.44,0,0,1-21-7,53.73,53.73,0,0,1,2.82-21c.46-1.33,1-2.64,1.55-3.93a45.92,45.92,0,0,1,5.93-9.83c8.9-11.16,22.64-17.91,36.79-19.82a72.89,72.89,0,0,1,17-.25h0A69.09,69.09,0,0,1,67.6,49.08Z" transform="translate(-3.4 -1.55)"/><path class="bf978872-2752-40a1-a2b0-72631dcf2514" d="M82.61,89a11.94,11.94,0,0,1-2.13-6.35c0-4.66,2.8-7.49,7.34-5.45a12.79,12.79,0,0,1,6.88,7.72,7.84,7.84,0,0,1-.36,6.3c-1.81,3.09-5.61,2.73-8.33,1.13A11,11,0,0,1,82.61,89Z" transform="translate(-3.4 -1.55)"/><path class="e57cb7d8-8896-471c-bec0-23e1b4c78ab0" d="M79,117.85c-.84-2.62-3.35-4.75-6.69-5.7a30.12,30.12,0,0,0-7.63-.78h-.06l-1.41,0c-18.6-.5-30.79-5-37.27-13.89a.32.32,0,0,0-.46-.07.35.35,0,0,0-.08.47c6.62,9,19,13.65,37.79,14.16l1.42,0h.06a29.1,29.1,0,0,1,7.46.76c3.13.88,5.46,2.85,6.24,5.26,1.2,3.73-1.46,7.61-4.57,9.36-3.91,2.21-9.12,3.32-15.5,3.32-1.45,0-3-.05-4.49-.17a75.62,75.62,0,0,1-8.54-1.15A59.62,59.62,0,0,1,20.6,119.06c-.83-.63-1.63-1.27-2.4-1.94-7.55-6.53-12.44-16.24-13.76-27.36a.35.35,0,0,0-.38-.29.34.34,0,0,0-.29.37c1.35,11.28,6.32,21.15,14,27.79.75.64,1.53,1.27,2.34,1.88a60,60,0,0,0,25,10.57,77.46,77.46,0,0,0,8.27,1.13c1.68.13,3.31.2,4.88.2,6.49,0,11.82-1.14,15.83-3.4C77.42,126.12,80.26,121.92,79,117.85Z" transform="translate(-3.4 -1.55)"/><path class="bd911c78-5d57-406c-a4d8-aa6dd9bfe42a" d="M54.27,129a4.76,4.76,0,0,1-.51,1.6,4.21,4.21,0,0,1-.39.64,77.46,77.46,0,0,1-8.27-1.13,60,60,0,0,1-25-10.57c.16-.15.33-.31.5-.45a29.16,29.16,0,0,1,8.47-5.32c.64-.25,1.29-.48,1.95-.67a20.22,20.22,0,0,1,15.28,1.19C51.52,117.09,55.09,123.09,54.27,129Z" transform="translate(-3.4 -1.55)"/><path class="e57cb7d8-8896-471c-bec0-23e1b4c78ab0" d="M116.76,127.06a54.05,54.05,0,0,1-20-2.33,19,19,0,0,1,2.32-10.11,16.49,16.49,0,0,1,7.3-6.3l1,.28c2.54.66,5.19,1,7.52,2.25a11.84,11.84,0,0,1,6,7.75C121.73,122.28,121.24,126.74,116.76,127.06Z" transform="translate(-3.4 -1.55)"/><path class="e57cb7d8-8896-471c-bec0-23e1b4c78ab0" d="M120.16,125.35a4.39,4.39,0,0,1-3.4,1.71c-1.28.09-2.58.13-3.87.13A51.77,51.77,0,0,1,92,122.93a45.89,45.89,0,0,1-7.78-4.44.33.33,0,0,1,.38-.54,45.34,45.34,0,0,0,7.68,4.37,51.07,51.07,0,0,0,20.64,4.2c1.28,0,2.56,0,3.82-.13a3.72,3.72,0,0,0,2.91-1.44c1-1.33,1.21-3.59.61-6.2a11.12,11.12,0,0,0-5.67-7.31,22.84,22.84,0,0,0-5.42-1.72c-.61-.14-1.3-.3-2-.47-2-.53-5-1.5-6.85-3.78a.34.34,0,0,1,0-.47.33.33,0,0,1,.47,0c1.74,2.12,4.54,3,6.49,3.55.65.17,1.34.33,1.94.47a23.05,23.05,0,0,1,5.57,1.78,11.8,11.8,0,0,1,6,7.75C121.53,121.4,121.26,123.86,120.16,125.35Z" transform="translate(-3.4 -1.55)"/><path class="e57cb7d8-8896-471c-bec0-23e1b4c78ab0" d="M161.21,107.86a.34.34,0,0,0-.41.24,21.75,21.75,0,0,1-3.31,7.22c-7,9.74-19.49,11.19-26.3,11.19-1.16,0-2.34,0-3.5-.12a3.73,3.73,0,0,1-2.91-1.44c-1-1.33-1.21-3.59-.61-6.2a10.18,10.18,0,0,1,.4-1.33,11.16,11.16,0,0,1,5.27-6,23,23,0,0,1,5.42-1.72c.61-.14,1.3-.3,2-.47a14.69,14.69,0,0,0,5.71-2.65,8.43,8.43,0,0,0,1.22-1.24.34.34,0,0,0-.53-.42,7.09,7.09,0,0,1-1,1.08,13.79,13.79,0,0,1-5.53,2.58c-.65.17-1.34.33-1.94.46a23.82,23.82,0,0,0-5.57,1.79,11.71,11.71,0,0,0-5.45,6,11.17,11.17,0,0,0-.57,1.78c-.65,2.8-.38,5.26.72,6.75a4.41,4.41,0,0,0,3.4,1.71c1.18.08,2.37.12,3.55.12,6.94,0,19.67-1.49,26.85-11.47a22.48,22.48,0,0,0,3.41-7.44A.34.34,0,0,0,161.21,107.86Z" transform="translate(-3.4 -1.55)"/><path class="e57cb7d8-8896-471c-bec0-23e1b4c78ab0" d="M139,121.48c-5.27,2.34-10.91.08-14.39-4.06q-.25-.3-.48-.6a11.71,11.71,0,0,1,5.45-6,23.82,23.82,0,0,1,5.57-1.79c.6-.13,1.29-.29,1.94-.46a13.79,13.79,0,0,0,5.53-2.58c.13.19.24.39.35.58C145.91,111.9,145.45,118.61,139,121.48Z" transform="translate(-3.4 -1.55)"/><path class="e57cb7d8-8896-471c-bec0-23e1b4c78ab0" d="M156.9,70.18c-6.6,9.3-18.25,13.52-29.3,14.07a75.57,75.57,0,0,1-11.94-.34,43.84,43.84,0,0,1-13.81-4,35.31,35.31,0,0,1-5.14-3.11c-.6-.39-1.33-1-1.88-1.49l-.23-.19-.22-.21c-.36-.32-1-.91-1.31-1.23A27.21,27.21,0,0,1,90,70l-.67-1s0-.06,0-.07a0,0,0,0,1,.07,0,30.79,30.79,0,0,0,8.6,8c7.36,4.59,16.19,6.38,24.79,6.28,9.39.24,19.09-1.52,27-6.78a31.41,31.41,0,0,0,6.95-6.32.06.06,0,0,1,.08,0s0,0,0,.07Z" transform="translate(-3.4 -1.55)"/><path class="aa8a01d6-9134-4c0d-8d0c-f9a7fc4ee63a" d="M136.52,25.94a32.32,32.32,0,0,1,9.56-11.12c1.27-.93,2.86-1.81,4.37-1.33s2.25,2,2.81,3.48a45.47,45.47,0,0,1,2.92,18.83Z" transform="translate(-3.4 -1.55)"/><path class="f5ec1c55-39b1-4ceb-af44-d4f8614d2b61" d="M140.86,26.36a20.47,20.47,0,0,1,6.83-7.59,2.12,2.12,0,0,1,.78-.39c1.09-.25,1.77.21,2.37,2.32a36.66,36.66,0,0,1,1,10.86Z" transform="translate(-3.4 -1.55)"/><path class="fd86c3f2-b61a-40b2-bd46-d501123e7718" d="M110.6,25.94a32.18,32.18,0,0,0-9.55-11.12c-1.28-.93-2.87-1.81-4.37-1.33s-2.26,2-2.81,3.48A45.48,45.48,0,0,0,90.94,35.8Z" transform="translate(-3.4 -1.55)"/><path class="a2070188-1fd0-4abf-b66d-8cdab4f51695" d="M106.26,26.36a20.47,20.47,0,0,0-6.83-7.59,2.16,2.16,0,0,0-.77-.39c-1.1-.25-1.78.21-2.38,2.32a36.66,36.66,0,0,0-1,10.86Z" transform="translate(-3.4 -1.55)"/><path class="b92ebff2-b12f-42cd-aa8f-b7eee82a8484" d="M123.56,22.13c24.71-.07,38.67,11.89,39.12,30.25.43,17.53-14.15,29.78-34.82,30.88-1.41.07-6.49.08-7.57,0C99.08,82.56,84,70.2,84.44,52.38,84.89,34,98.85,22.06,123.56,22.13Z" transform="translate(-3.4 -1.55)"/><path class="e57cb7d8-8896-471c-bec0-23e1b4c78ab0" d="M160.45,64.16a54.57,54.57,0,0,1-11.84-5.06,42.9,42.9,0,0,1-17.32-18.23,34.49,34.49,0,0,1-3.23-18.61c21.91,1.32,34.2,12.91,34.62,30.12A27.46,27.46,0,0,1,160.45,64.16Z" transform="translate(-3.4 -1.55)"/><path class="e57cb7d8-8896-471c-bec0-23e1b4c78ab0" d="M119.72,22.22A38.51,38.51,0,0,1,105.2,32a49.54,49.54,0,0,1-12.72,3c-.52.06-1,.11-1.57.15l-.81.06c.25-.33.51-.66.78-1a45.4,45.4,0,0,1,3-17.29c.55-1.44,1.34-3,2.81-3.48s3.09.4,4.37,1.33a32.33,32.33,0,0,1,8.25,8.84A57.57,57.57,0,0,1,119.72,22.22Z" transform="translate(-3.4 -1.55)"/><path class="ab9abbc2-9d45-42f1-abfd-f447a66d59f5" d="M105.39,24.78a21.86,21.86,0,0,0-6-6,2.16,2.16,0,0,0-.77-.39c-1.1-.25-1.78.21-2.38,2.32a34.09,34.09,0,0,0-1.07,9.41A34.58,34.58,0,0,1,105.39,24.78Z" transform="translate(-3.4 -1.55)"/><path class="b5adde8f-584c-4894-8d53-66154ff67579" d="M134.7,44.38a4.51,4.51,0,0,1-2.84,2.07c-2.43.6-5-.65-6.57-2.42a14.43,14.43,0,0,1-1.73-2.34,10.09,10.09,0,0,1-4.69,4.44,5.29,5.29,0,0,1-5.92-1,4,4,0,0,1-.52-.72s0-.05,0,0c1.31,2,4.16,2.45,6.26,1.46a10.33,10.33,0,0,0,4.58-4.55l.09-.17.12-.22a0,0,0,0,1,.08,0l.12.22a1.4,1.4,0,0,0,.1.16,14.18,14.18,0,0,0,1.78,2.5,8.34,8.34,0,0,0,2.79,2.06,5,5,0,0,0,6.27-1.46S134.71,44.35,134.7,44.38Z" transform="translate(-3.4 -1.55)"/><path class="b259e41b-d1c5-455a-aa1f-4b85364a939e" d="M129,38.28a1.11,1.11,0,0,1-.74.54,8.13,8.13,0,0,0-3,1.89l-.13.13a3.44,3.44,0,0,1-.8.66,1.44,1.44,0,0,1-.75.16h-.07a1.45,1.45,0,0,1-.67-.17,3.44,3.44,0,0,1-.8-.66l-.13-.13a8.13,8.13,0,0,0-3-1.89,1.11,1.11,0,0,1-.74-.54.85.85,0,0,1,0-.7c.29-.6,1.29-.89,1.77-1a13.1,13.1,0,0,1,3.7-.54h0a11.71,11.71,0,0,1,3.89.64,2.41,2.41,0,0,1,1.47,1A.82.82,0,0,1,129,38.28Z" transform="translate(-3.4 -1.55)"/><path class="b5adde8f-584c-4894-8d53-66154ff67579" d="M130.65,36.34c3.18-4.76,11.15-4.56,14.11.33a.06.06,0,0,1,0,.09,0,0,0,0,1-.06,0,10.82,10.82,0,0,0-3.21-2,10.62,10.62,0,0,0-9.17.6,9.94,9.94,0,0,0-1.57,1.08s-.12,0-.09-.08Z" transform="translate(-3.4 -1.55)"/><path class="b5adde8f-584c-4894-8d53-66154ff67579" d="M116.4,36.43a10.65,10.65,0,0,0-10.74-1.68,10.87,10.87,0,0,0-3.22,2,0,0,0,0,1-.07,0,.06.06,0,0,1,0-.08c2.15-3.61,7.33-4.77,11-2.93a7.24,7.24,0,0,1,3.08,2.6s0,.07,0,.09Z" transform="translate(-3.4 -1.55)"/><path class="b5adde8f-584c-4894-8d53-66154ff67579" d="M112.4,41.64c-12.29,1-24.37,6-33.26,14.62,0,0,0,0,0,0,8.7-8.68,21-14.58,33.29-14.59Z" transform="translate(-3.4 -1.55)"/><path class="b5adde8f-584c-4894-8d53-66154ff67579" d="M74.58,48.36c11.3-6.19,24.5-9.38,37.38-8,0,0,0,.05,0,.05a73.26,73.26,0,0,0-37.38,7.9Z" transform="translate(-3.4 -1.55)"/><path class="b5adde8f-584c-4894-8d53-66154ff67579" d="M78.39,41.09C89.11,37.46,100.92,36.37,112,39c0,0,0,.05,0,.05a72.17,72.17,0,0,0-33.58,2Z" transform="translate(-3.4 -1.55)"/><path class="b5adde8f-584c-4894-8d53-66154ff67579" d="M134.72,41.6c12.45.18,24.54,5.9,33.29,14.63a0,0,0,1,1,0,0C159,47.49,147,42.78,134.72,41.6Z" transform="translate(-3.4 -1.55)"/><path class="b5adde8f-584c-4894-8d53-66154ff67579" d="M172.52,48.4c-11.4-6.11-24.49-8.51-37.35-7.94,0,0,0-.05,0-.05a63.4,63.4,0,0,1,37.36,8Z" transform="translate(-3.4 -1.55)"/><path class="b5adde8f-584c-4894-8d53-66154ff67579" d="M168.72,41.14c-10.8-3.54-22.4-3.87-33.56-2a0,0,0,0,1,0-.05,60.23,60.23,0,0,1,33.57,2.1Z" transform="translate(-3.4 -1.55)"/><path class="b5adde8f-584c-4894-8d53-66154ff67579" d="M109.28,27.26c0-3.09,0-6.32-.2-9.4a52.93,52.93,0,0,0-1.63-9.27s0,0,0,0a48,48,0,0,1,2.23,14c0,1.1-.1,2.45-.23,3.55-.06.39-.1.78-.17,1.17,0,0,0,0,0,0Z" transform="translate(-3.4 -1.55)"/><path class="b5adde8f-584c-4894-8d53-66154ff67579" d="M110.53,27.6c1.36-7.92,1.21-16.19-1.52-23.81,0,0,0,0,0,0,2.77,7.3,3.82,16.4,1.48,23.82Z" transform="translate(-3.4 -1.55)"/><path class="b5adde8f-584c-4894-8d53-66154ff67579" d="M137.8,27.27a33.25,33.25,0,0,1-.11-9.45,49.47,49.47,0,0,1,1.94-9.24s.05,0,0,0a52.91,52.91,0,0,0-1.62,9.27c-.19,2.33-.21,4.7-.22,7l0,2.36s0,0,0,0Z" transform="translate(-3.4 -1.55)"/><path class="b5adde8f-584c-4894-8d53-66154ff67579" d="M136.55,27.61c-2.22-7.8-1.3-16.31,1.53-23.83,0,0,0,0,0,0A42.52,42.52,0,0,0,135.8,15.6a52.4,52.4,0,0,0,.08,6c.12,2,.39,4,.71,6,0,0,0,0,0,0Z" transform="translate(-3.4 -1.55)"/><polygon class="a447033a-557e-4df1-a001-0e85cebbbfb3" points="116.77 89.75 114.29 93.9 111.81 89.75 107.6 89.75 112.38 96.9 112.38 102.05 116.18 102.05 116.18 96.9 120.64 90.22 125.1 96.9 125.1 102.05 128.9 102.05 128.9 96.9 133.67 89.75 129.48 89.75 127.01 93.9 124.53 89.75 116.77 89.75"/></svg>